<svg xmlns="http://www.w3.org/2000/svg" viewBox="0 0 30.57 32.32"><defs><style>.cls-1{fill:#fff;}</style></defs><g id="Layer_2" data-name="Layer 2"><g id="Layer_1-2" data-name="Layer 1"><path class="cls-1" d="M11.75,16.4.73,6.14a2.52,2.52,0,0,1,0-3.54,2.52,2.52,0,0,1,3.54-.24l11,10.27L26.3.86A2.52,2.52,0,0,1,29.84.62a2.5,2.5,0,0,1,0,3.53l-11,11.77,11,10.27a2.5,2.5,0,0,1,0,3.53,2.73,2.73,0,0,1-1.77.86A2.35,2.35,0,0,1,26.3,30l-11-10.26-11,11.77a2.72,2.72,0,0,1-1.77.85,2.38,2.38,0,0,1-1.77-.61,2.52,2.52,0,0,1,0-3.54Z"/></g></g></svg>