<svg xmlns="http://www.w3.org/2000/svg" viewBox="0 0 72.39 72.39"><defs><style>.cls-1{fill:#fff;}</style></defs><g id="Layer_2" data-name="Layer 2"><g id="Layer_1-2" data-name="Layer 1"><circle class="cls-1" cx="36.19" cy="36.19" r="36.19"/><path d="M39.73,36.43l11-10.26a2.6,2.6,0,0,0-3.54-3.78l-11,10.27-11-11.77a2.52,2.52,0,0,0-3.54-.24,2.49,2.49,0,0,0,0,3.53L32.66,36l-11,10.27a2.49,2.49,0,0,0,0,3.53,2.69,2.69,0,0,0,1.77.86A2.38,2.38,0,0,0,25.18,50l11-10.27,11,11.77a2.67,2.67,0,0,0,1.77.85,2.38,2.38,0,0,0,1.77-.61,2.52,2.52,0,0,0,0-3.54Z"/></g></g></svg>