<svg xmlns="http://www.w3.org/2000/svg" viewBox="0 0 50.25 50.25"><defs><style>.cls-1{fill:#fff;}</style></defs><g id="Layer_2" data-name="Layer 2"><g id="Layer_1-2" data-name="Layer 1"><path class="cls-1" d="M42.89,7.36A25.13,25.13,0,1,0,25.12,50.25,25.12,25.12,0,0,0,42.89,7.36Zm-3.53,32a20.15,20.15,0,1,1,5.89-14.24A20.16,20.16,0,0,1,39.36,39.37Z"/><path class="cls-1" d="M25.62,24.74V14.56a2.5,2.5,0,1,0-5,0V25.78a2.61,2.61,0,0,0,.05.48,1.41,1.41,0,0,0,.06.22c0,.09.05.17.08.25s.09.17.13.25.06.12.1.18a2.37,2.37,0,0,0,.32.39l7.92,7.92a2.5,2.5,0,0,0,3.54-3.53Z"/></g></g></svg>