<?xml version="1.0" encoding="utf-8"?>
<!-- Generator: Adobe Illustrator 25.4.1, SVG Export Plug-In . SVG Version: 6.00 Build 0)  -->
<svg version="1.1" id="Layer_1" xmlns="http://www.w3.org/2000/svg" xmlns:xlink="http://www.w3.org/1999/xlink" x="0px" y="0px"
	 viewBox="0 0 92.74 97.26" style="enable-background:new 0 0 92.74 97.26;" xml:space="preserve">
<style type="text/css">
	.st0{fill:#FFFFFF;}
</style>
<g>
	<path class="st0" d="M17.19,30.61l58.35,4.14c1.38,0.1,2.5-0.94,2.5-2.32s-1.12-2.58-2.5-2.68l-58.35-4.14
		c-1.38-0.1-2.5,0.94-2.5,2.32S15.81,30.51,17.19,30.61z"/>
	<path class="st0" d="M75.55,48.64l-58.35-4.14c-1.38-0.1-2.5,0.94-2.5,2.32s1.12,2.58,2.5,2.68l58.35,4.14
		c1.38,0.1,2.5-0.94,2.5-2.32S76.93,48.74,75.55,48.64z"/>
	<path class="st0" d="M75.55,67.54l-58.35-4.14c-1.38-0.1-2.5,0.94-2.5,2.32s1.12,2.58,2.5,2.68l58.35,4.14
		c1.38,0.1,2.5-0.94,2.5-2.32S76.93,67.64,75.55,67.54z"/>
</g>
</svg>
