<svg xmlns="http://www.w3.org/2000/svg" viewBox="0 0 46.25 48.25"><defs><style>.cls-1{fill:#fff;}</style></defs><g id="Layer_2" data-name="Layer 2"><g id="Layer_1-2" data-name="Layer 1"><path class="cls-1" d="M45.51,44.1,28.44,25.83C32.87,20,32.35,11.32,26.82,5.41,20.69-1.15,10.72-1.84,4.6,3.86s-6.13,15.67,0,22.23a16.87,16.87,0,0,0,11.11,5.37,14.93,14.93,0,0,0,9.19-2.34L42,47.39a2.67,2.67,0,0,0,1.77.85,2.26,2.26,0,0,0,1.76-.61A2.49,2.49,0,0,0,45.51,44.1ZM8.13,22.8C4,18.33,4,11.53,8.13,7.64A10,10,0,0,1,15.71,5,11.49,11.49,0,0,1,23.29,8.7c4.17,4.47,4.18,11.27,0,15.16S12.31,27.27,8.13,22.8Z"/></g></g></svg>