<svg xmlns="http://www.w3.org/2000/svg" viewBox="0 0 92.74 97.26"><defs><style>.cls-1{fill:#fff;}</style></defs><g id="Layer_2" data-name="Layer 2"><g id="Layer_1-2" data-name="Layer 1"><path class="cls-1" d="M68.76,69.05,51.68,50.78c4.44-5.83,3.91-14.51-1.61-20.42-6.13-6.55-16.1-7.25-22.23-1.55s-6.12,15.67,0,22.23A16.92,16.92,0,0,0,39,56.41a14.94,14.94,0,0,0,9.19-2.34L65.23,72.34a2.63,2.63,0,0,0,1.76.85,2.33,2.33,0,0,0,1.77-.6A2.5,2.5,0,0,0,68.76,69.05ZM31.38,47.75c-4.18-4.47-4.18-11.27,0-15.16A10,10,0,0,1,39,30a11.44,11.44,0,0,1,7.57,3.66c4.18,4.47,4.18,11.27,0,15.16S35.56,52.22,31.38,47.75Z"/><path class="cls-1" d="M78.24,4.49,14.5,0A13.35,13.35,0,0,0,0,13.52V77.26A15.81,15.81,0,0,0,14.5,92.78l63.74,4.45a13.37,13.37,0,0,0,14.5-13.49V20A15.8,15.8,0,0,0,78.24,4.49Zm9.5,78.9a8.76,8.76,0,0,1-9.5,8.84L14.5,87.78A10.37,10.37,0,0,1,5,77.61V13.87A8.74,8.74,0,0,1,14.5,5L78.24,9.49a10.35,10.35,0,0,1,9.5,10.16Z"/></g></g></svg>