<?xml version="1.0" encoding="utf-8"?>
<!-- Generator: Adobe Illustrator 25.4.1, SVG Export Plug-In . SVG Version: 6.00 Build 0)  -->
<svg version="1.1" id="Layer_1" xmlns="http://www.w3.org/2000/svg" xmlns:xlink="http://www.w3.org/1999/xlink" x="0px" y="0px"
	 viewBox="0 0 325.22 85.43" style="enable-background:new 0 0 325.22 85.43;" xml:space="preserve">
<style type="text/css">
	.st0{fill:#EE203A;}
	.st1{fill:#FFFFFF;}
</style>
<path class="st0" d="M3.32,26.93c-3.48,2.9-4.93,8.27-0.8,15.73s14.83,21.77,35.6,34.53c14.8,9.09,27.47,9.6,33.47,6.53
	c8.82-4.51,7.6-17.73,7.6-24s-0.93-22,0.87-29.6s9-15.73,9-21.47S85.32,0,79.18,0c-5.07,0-11.33,2.4-14.53,6.93
	c-3.2,4.53-5.33,10.4-5.33,21.07s4.4,23.33,5.87,28.53c1.47,5.2,2.67,10.27,2.67,13.73c0,3.47-0.13,6.67-3.2,6.67
	c-3.07,0-9.07-3.87-20.93-17.47c-11.96-13.7-14.93-20.8-21.07-27.87S10.52,20.93,3.32,26.93z"/>
<g>
	<path class="st1" d="M154.77,29.5c-1.38,0.1-2.5,1.29-2.5,2.67v5.85c-4.36-5.31-11.16-8.46-18.8-7.92
		c-13.13,0.91-23.8,12.34-23.8,25.46s10.68,23.06,23.8,22.15c7.64-0.53,14.45-4.63,18.8-10.54v6.73c0,1.38,1.12,2.42,2.5,2.33
		s2.5-1.29,2.5-2.67V31.83C157.27,30.45,156.15,29.41,154.77,29.5z M133.47,72.71c-10.37,0.72-18.8-7.12-18.8-17.49
		s8.44-19.39,18.8-20.11s18.8,7.12,18.8,17.49S143.83,71.99,133.47,72.71z"/>
	<path class="st1" d="M301.41,18.39c-9.32,0.65-17.4,6.6-21.3,14.69c-3.91-7.55-11.99-12.37-21.3-11.72
		c-7.64,0.53-14.45,4.63-18.8,10.54v-6.73c0-1.38-1.12-2.42-2.5-2.33c-1.38,0.1-2.5,1.29-2.5,2.67v42.61c0,1.38,1.12,2.42,2.5,2.33
		s2.5-1.29,2.5-2.67v-21.3c0-10.37,8.44-19.39,18.8-20.11c10.37-0.72,18.8,7.12,18.8,17.49v21.3c0,1.38,1.12,2.42,2.5,2.33
		c1.38-0.1,2.5-1.29,2.5-2.67v-21.3c0-10.37,8.44-19.39,18.8-20.11c10.37-0.72,18.8,7.12,18.8,17.49v21.3c0,1.38,1.12,2.42,2.5,2.33
		s2.5-1.29,2.5-2.67v-21.3C325.22,27.41,314.54,17.48,301.41,18.39z"/>
	<path class="st1" d="M97.96,33.46c-1.38,0.1-2.5,1.29-2.5,2.67v42.61c0,1.38,1.12,2.42,2.5,2.33c1.38-0.1,2.5-1.29,2.5-2.67V35.79
		C100.46,34.41,99.34,33.37,97.96,33.46z"/>
	<path class="st1" d="M96.19,25.68c-0.46,0.49-0.73,1.16-0.73,1.82c0,0.16,0.02,0.32,0.05,0.48c0.03,0.16,0.08,0.31,0.14,0.46
		c0.06,0.15,0.14,0.29,0.23,0.41c0.09,0.13,0.2,0.26,0.31,0.36c0.47,0.44,1.11,0.66,1.77,0.62c0.66-0.05,1.3-0.36,1.77-0.86
		c0.11-0.12,0.22-0.26,0.31-0.4c0.09-0.14,0.17-0.29,0.23-0.45c0.06-0.15,0.11-0.32,0.14-0.48c0.03-0.16,0.05-0.32,0.05-0.48
		c0-0.66-0.27-1.29-0.73-1.72C98.8,24.57,97.12,24.69,96.19,25.68z"/>
	<path class="st1" d="M197.56,25.63c-1.38,0.1-2.5,1.29-2.5,2.67v42.61c0,1.38,1.12,2.42,2.5,2.33s2.5-1.29,2.5-2.67V27.96
		C200.06,26.58,198.94,25.54,197.56,25.63z"/>
	<path class="st1" d="M199.87,18.37c-0.07-0.15-0.14-0.29-0.23-0.41c-0.1-0.13-0.2-0.26-0.32-0.36c-0.11-0.11-0.24-0.2-0.38-0.28
		c-0.13-0.08-0.28-0.15-0.43-0.2s-0.31-0.09-0.47-0.11c-0.32-0.05-0.65-0.02-0.97,0.07c-0.16,0.04-0.32,0.1-0.47,0.17
		c-0.15,0.07-0.3,0.16-0.43,0.26c-0.14,0.1-0.27,0.21-0.38,0.34c-0.12,0.12-0.22,0.26-0.31,0.4c-0.09,0.14-0.17,0.29-0.23,0.45
		c-0.06,0.15-0.11,0.32-0.14,0.48c-0.04,0.16-0.05,0.32-0.05,0.49c0,0.16,0.01,0.32,0.05,0.49c0.03,0.15,0.08,0.3,0.14,0.45
		c0.06,0.15,0.14,0.29,0.23,0.41c0.09,0.13,0.19,0.26,0.31,0.37c0.11,0.1,0.24,0.2,0.38,0.28c0.13,0.08,0.28,0.14,0.43,0.2
		c0.15,0.05,0.31,0.09,0.47,0.11c0.16,0.02,0.32,0.03,0.49,0.02c0.16-0.01,0.32-0.04,0.48-0.08c0.16-0.04,0.32-0.1,0.47-0.17
		c0.15-0.08,0.3-0.16,0.43-0.26c0.14-0.1,0.27-0.22,0.38-0.34c0.12-0.13,0.22-0.27,0.32-0.41c0.09-0.14,0.16-0.29,0.23-0.45
		c0.06-0.15,0.11-0.32,0.14-0.47c0.03-0.17,0.05-0.33,0.05-0.49c0-0.17-0.02-0.33-0.05-0.49C199.98,18.68,199.93,18.52,199.87,18.37
		z"/>
	<path class="st1" d="M191.16,4.77c-13.13,0.91-23.8,12.34-23.8,25.46v42.61c0,1.38,1.12,2.42,2.5,2.33s2.5-1.29,2.5-2.67V32.39
		l8.15-0.57c1.38-0.1,2.5-1.29,2.5-2.67s-1.12-2.42-2.5-2.33l-7.97,0.56c1.23-9.27,9.1-16.94,18.62-17.6c1.38-0.1,2.5-1.29,2.5-2.67
		S192.55,4.68,191.16,4.77z"/>
	<path class="st1" d="M225.96,66.26c-4.5,0.31-8.15-3.09-8.15-7.58V5.42c0-1.38-1.12-2.42-2.5-2.33c-1.38,0.1-2.5,1.29-2.5,2.67
		v53.26c0,7.25,5.9,12.74,13.15,12.24c1.38-0.1,2.5-1.29,2.5-2.67S227.34,66.17,225.96,66.26z"/>
</g>
</svg>
